<svg version="1.1" id="icons" xmlns="http://www.w3.org/2000/svg" xmlns:xlink="http://www.w3.org/1999/xlink" x="0px" y="0px"
	 viewBox="0 0 24 24" enable-background="new 0 0 24 24" xml:space="preserve">
<g>
	<polygon fill="none" stroke="#231F20" stroke-linejoin="round" stroke-miterlimit="10" points="7,23.5 17,23.5 12,13.5 	"/>
	<path fill="none" stroke="#231F20" stroke-linecap="round" stroke-miterlimit="10" d="M20.3,19.9c2-2.1,3.2-4.9,3.2-7.9
		c0-6.4-5.1-11.5-11.5-11.5C5.6,0.5,0.5,5.6,0.5,12c0,3.1,1.2,5.9,3.2,7.9"/>
	<path fill="none" stroke="#231F20" stroke-linecap="round" stroke-miterlimit="10" d="M5.9,16.4C5,15.1,4.5,13.6,4.5,12
		c0-4.1,3.4-7.5,7.5-7.5c4.1,0,7.5,3.4,7.5,7.5c0,1.6-0.5,3.1-1.4,4.4"/>
	<path fill="none" stroke="#231F20" stroke-linecap="round" stroke-linejoin="round" stroke-miterlimit="10" d="M20.3,19.9"/>
	<path fill="none" stroke="#231F20" stroke-linecap="round" stroke-linejoin="round" stroke-miterlimit="10" d="M3.7,19.9"/>
	<path fill="none" stroke="#231F20" stroke-linecap="round" stroke-miterlimit="10" d="M5.9,16.4"/>
	<path fill="none" stroke="#231F20" stroke-linecap="round" stroke-miterlimit="10" d="M18.1,16.4"/>
	<path fill="none" stroke="#231F20" stroke-linecap="round" stroke-miterlimit="10" d="M20.3,19.9"/>
	<path fill="none" stroke="#231F20" stroke-linecap="round" stroke-miterlimit="10" d="M3.7,19.9"/>
	<path fill="none" stroke="#231F20" stroke-linecap="round" stroke-miterlimit="10" d="M8.5,12.2c0-0.1,0-0.1,0-0.2
		c0-2,1.6-3.5,3.5-3.5c1.9,0,3.5,1.5,3.5,3.5c0,0.1,0,0.1,0,0.2"/>
	<path fill="none" stroke="#231F20" stroke-linecap="round" stroke-miterlimit="10" d="M5.9,16.4"/>
	<path fill="none" stroke="#231F20" stroke-linecap="round" stroke-miterlimit="10" d="M8.5,12.2"/>
	<path fill="none" stroke="#231F20" stroke-linecap="round" stroke-miterlimit="10" d="M15.5,12.2"/>
	<path fill="none" stroke="#231F20" stroke-linecap="round" stroke-miterlimit="10" d="M18.1,16.4"/>
	<path fill="none" stroke="#231F20" stroke-linecap="round" stroke-miterlimit="10" d="M8.5,12.2"/>
	<path fill="none" stroke="#231F20" stroke-linecap="round" stroke-miterlimit="10" d="M15.5,12.2"/>

		<line fill="none" stroke="#231F20" stroke-linecap="round" stroke-linejoin="round" stroke-miterlimit="10" x1="12" y1="13.5" x2="12" y2="11.5"/>
	<line fill="none" stroke="#231F20" stroke-linejoin="round" stroke-miterlimit="10" x1="7" y1="23.5" x2="14.5" y2="18.5"/>
	<line fill="none" stroke="#231F20" stroke-linejoin="round" stroke-miterlimit="10" x1="17" y1="23.5" x2="9.5" y2="18.5"/>
	<line fill="none" stroke="#231F20" stroke-linejoin="round" stroke-miterlimit="10" x1="10.3" y1="17" x2="13.7" y2="17"/>
</g>
</svg>
